<svg xmlns="http://www.w3.org/2000/svg" viewBox="-46.0 -46.0 356.0 184.0" width="100%" style="max-width:900px;height:auto" font-family="ui-monospace,Consolas,monospace"><defs><marker id="a" markerWidth="9" markerHeight="9" refX="8" refY="3" orient="auto"><path d="M0,0 L9,3 L0,6 z" fill="currentColor"/></marker></defs><g color="var(--dim,#6B7378)"><rect x="24.0" y="10.0" width="216.0" height="72.0" fill="none" stroke="var(--ref,#C8322B)" stroke-width="0.5" stroke-dasharray="4 3" opacity="0.85"/><rect x="0" y="0" width="264.0" height="92.0" rx="4.0" fill="var(--plate,#E4E7E8)" stroke="var(--ink,#14171A)" stroke-width="0.8"/><rect x="28.5" y="15.0" width="31.0" height="26.0" rx="2" fill="none" stroke="var(--ink,#14171A)" stroke-width="0.3" stroke-dasharray="2 2" opacity="0.35"/><circle cx="44.0" cy="28.0" r="12.0" fill="var(--bore,#FFF)" stroke="var(--ink,#14171A)" stroke-width="0.7"/><circle cx="32.0" cy="28.0" r="1.6" fill="var(--bore,#FFF)" stroke="var(--ink,#14171A)" stroke-width="0.5"/><circle cx="56.0" cy="28.0" r="1.6" fill="var(--bore,#FFF)" stroke="var(--ink,#14171A)" stroke-width="0.5"/><text x="44.0" y="47.0" font-size="4.2" text-anchor="middle" fill="var(--ink,#14171A)" letter-spacing="0.3">SDI IN 1</text><rect x="72.5" y="15.0" width="31.0" height="26.0" rx="2" fill="none" stroke="var(--ink,#14171A)" stroke-width="0.3" stroke-dasharray="2 2" opacity="0.35"/><circle cx="88.0" cy="28.0" r="12.0" fill="var(--bore,#FFF)" stroke="var(--ink,#14171A)" stroke-width="0.7"/><circle cx="76.0" cy="28.0" r="1.6" fill="var(--bore,#FFF)" stroke="var(--ink,#14171A)" stroke-width="0.5"/><circle cx="100.0" cy="28.0" r="1.6" fill="var(--bore,#FFF)" stroke="var(--ink,#14171A)" stroke-width="0.5"/><text x="88.0" y="47.0" font-size="4.2" text-anchor="middle" fill="var(--ink,#14171A)" letter-spacing="0.3">SDI IN 2</text><rect x="116.5" y="15.0" width="31.0" height="26.0" rx="2" fill="none" stroke="var(--ink,#14171A)" stroke-width="0.3" stroke-dasharray="2 2" opacity="0.35"/><circle cx="132.0" cy="28.0" r="12.0" fill="var(--bore,#FFF)" stroke="var(--ink,#14171A)" stroke-width="0.7"/><circle cx="120.0" cy="28.0" r="1.6" fill="var(--bore,#FFF)" stroke="var(--ink,#14171A)" stroke-width="0.5"/><circle cx="144.0" cy="28.0" r="1.6" fill="var(--bore,#FFF)" stroke="var(--ink,#14171A)" stroke-width="0.5"/><text x="132.0" y="47.0" font-size="4.2" text-anchor="middle" fill="var(--ink,#14171A)" letter-spacing="0.3">SDI IN 3</text><rect x="160.5" y="15.0" width="31.0" height="26.0" rx="2" fill="none" stroke="var(--ink,#14171A)" stroke-width="0.3" stroke-dasharray="2 2" opacity="0.35"/><circle cx="176.0" cy="28.0" r="12.0" fill="var(--bore,#FFF)" stroke="var(--ink,#14171A)" stroke-width="0.7"/><circle cx="164.0" cy="28.0" r="1.6" fill="var(--bore,#FFF)" stroke="var(--ink,#14171A)" stroke-width="0.5"/><circle cx="188.0" cy="28.0" r="1.6" fill="var(--bore,#FFF)" stroke="var(--ink,#14171A)" stroke-width="0.5"/><text x="176.0" y="47.0" font-size="4.2" text-anchor="middle" fill="var(--ink,#14171A)" letter-spacing="0.3">SDI IN 4</text><rect x="204.5" y="15.0" width="31.0" height="26.0" rx="2" fill="none" stroke="var(--ink,#14171A)" stroke-width="0.3" stroke-dasharray="2 2" opacity="0.35"/><circle cx="220.0" cy="28.0" r="12.0" fill="var(--bore,#FFF)" stroke="var(--ink,#14171A)" stroke-width="0.7"/><circle cx="208.0" cy="28.0" r="1.6" fill="var(--bore,#FFF)" stroke="var(--ink,#14171A)" stroke-width="0.5"/><circle cx="232.0" cy="28.0" r="1.6" fill="var(--bore,#FFF)" stroke="var(--ink,#14171A)" stroke-width="0.5"/><text x="220.0" y="47.0" font-size="4.2" text-anchor="middle" fill="var(--ink,#14171A)" letter-spacing="0.3">PGM OUT</text><rect x="28.5" y="51.0" width="31.0" height="26.0" rx="2" fill="none" stroke="var(--ink,#14171A)" stroke-width="0.3" stroke-dasharray="2 2" opacity="0.35"/><circle cx="44.0" cy="64.0" r="12.0" fill="var(--bore,#FFF)" stroke="var(--ink,#14171A)" stroke-width="0.7"/><circle cx="32.0" cy="64.0" r="1.6" fill="var(--bore,#FFF)" stroke="var(--ink,#14171A)" stroke-width="0.5"/><circle cx="56.0" cy="64.0" r="1.6" fill="var(--bore,#FFF)" stroke="var(--ink,#14171A)" stroke-width="0.5"/><line x1="37.0" y1="57.0" x2="51.0" y2="71.0" stroke="var(--dim,#6B7378)" stroke-width="0.6" opacity="0.6"/><text x="44.0" y="83.0" font-size="4.2" text-anchor="middle" fill="var(--dim,#6B7378)" letter-spacing="0.3">BLANK</text><rect x="72.5" y="51.0" width="31.0" height="26.0" rx="2" fill="none" stroke="var(--ink,#14171A)" stroke-width="0.3" stroke-dasharray="2 2" opacity="0.35"/><circle cx="88.0" cy="64.0" r="12.0" fill="var(--bore,#FFF)" stroke="var(--ink,#14171A)" stroke-width="0.7"/><circle cx="76.0" cy="64.0" r="1.6" fill="var(--bore,#FFF)" stroke="var(--ink,#14171A)" stroke-width="0.5"/><circle cx="100.0" cy="64.0" r="1.6" fill="var(--bore,#FFF)" stroke="var(--ink,#14171A)" stroke-width="0.5"/><line x1="81.0" y1="57.0" x2="95.0" y2="71.0" stroke="var(--dim,#6B7378)" stroke-width="0.6" opacity="0.6"/><text x="88.0" y="83.0" font-size="4.2" text-anchor="middle" fill="var(--dim,#6B7378)" letter-spacing="0.3">BLANK</text><rect x="116.5" y="51.0" width="31.0" height="26.0" rx="2" fill="none" stroke="var(--ink,#14171A)" stroke-width="0.3" stroke-dasharray="2 2" opacity="0.35"/><circle cx="132.0" cy="64.0" r="12.0" fill="var(--bore,#FFF)" stroke="var(--ink,#14171A)" stroke-width="0.7"/><circle cx="120.0" cy="64.0" r="1.6" fill="var(--bore,#FFF)" stroke="var(--ink,#14171A)" stroke-width="0.5"/><circle cx="144.0" cy="64.0" r="1.6" fill="var(--bore,#FFF)" stroke="var(--ink,#14171A)" stroke-width="0.5"/><text x="132.0" y="83.0" font-size="4.2" text-anchor="middle" fill="var(--ink,#14171A)" letter-spacing="0.3">NETWORK</text><rect x="160.5" y="51.0" width="31.0" height="26.0" rx="2" fill="none" stroke="var(--ink,#14171A)" stroke-width="0.3" stroke-dasharray="2 2" opacity="0.35"/><circle cx="176.0" cy="64.0" r="12.0" fill="var(--bore,#FFF)" stroke="var(--ink,#14171A)" stroke-width="0.7"/><circle cx="164.0" cy="64.0" r="1.6" fill="var(--bore,#FFF)" stroke="var(--ink,#14171A)" stroke-width="0.5"/><circle cx="188.0" cy="64.0" r="1.6" fill="var(--bore,#FFF)" stroke="var(--ink,#14171A)" stroke-width="0.5"/><text x="176.0" y="83.0" font-size="4.2" text-anchor="middle" fill="var(--ink,#14171A)" letter-spacing="0.3">USB-C</text><rect x="204.5" y="51.0" width="31.0" height="26.0" rx="2" fill="none" stroke="var(--ink,#14171A)" stroke-width="0.3" stroke-dasharray="2 2" opacity="0.35"/><circle cx="220.0" cy="64.0" r="12.0" fill="var(--bore,#FFF)" stroke="var(--ink,#14171A)" stroke-width="0.7"/><circle cx="208.0" cy="64.0" r="1.6" fill="var(--bore,#FFF)" stroke="var(--ink,#14171A)" stroke-width="0.5"/><circle cx="232.0" cy="64.0" r="1.6" fill="var(--bore,#FFF)" stroke="var(--ink,#14171A)" stroke-width="0.5"/><text x="220.0" y="83.0" font-size="4.2" text-anchor="middle" fill="var(--ink,#14171A)" letter-spacing="0.3">AC IN</text><circle cx="12.0" cy="77.0" r="2.25" fill="var(--bore,#FFF)" stroke="var(--ink,#14171A)" stroke-width="0.6"/><circle cx="12.0" cy="46.0" r="2.25" fill="var(--bore,#FFF)" stroke="var(--ink,#14171A)" stroke-width="0.6"/><circle cx="12.0" cy="15.0" r="2.25" fill="var(--bore,#FFF)" stroke="var(--ink,#14171A)" stroke-width="0.6"/><circle cx="252.0" cy="77.0" r="2.25" fill="var(--bore,#FFF)" stroke="var(--ink,#14171A)" stroke-width="0.6"/><circle cx="252.0" cy="46.0" r="2.25" fill="var(--bore,#FFF)" stroke="var(--ink,#14171A)" stroke-width="0.6"/><circle cx="252.0" cy="15.0" r="2.25" fill="var(--bore,#FFF)" stroke="var(--ink,#14171A)" stroke-width="0.6"/><line x1="0" y1="-12" x2="264.0" y2="-12" stroke="currentColor" stroke-width="0.4" marker-start="url(#a)" marker-end="url(#a)"/><text x="132.0" y="-14.5" font-size="4.6" text-anchor="middle" fill="currentColor">264</text><line x1="44.0" y1="8.0" x2="88.0" y2="8.0" stroke="currentColor" stroke-width="0.4" marker-start="url(#a)" marker-end="url(#a)"/><text x="66.0" y="5.5" font-size="4.6" text-anchor="middle" fill="currentColor">44 pitch</text><line x1="24.0" y1="122.0" x2="240.0" y2="122.0" stroke="currentColor" stroke-width="0.4" marker-start="url(#a)" marker-end="url(#a)"/><text x="132.0" y="119.5" font-size="4.6" text-anchor="middle" fill="currentColor">case opening 216</text><line x1="-12" y1="0" x2="-12" y2="92.0" stroke="currentColor" stroke-width="0.4" marker-start="url(#a)" marker-end="url(#a)"/><text x="-15" y="46.0" font-size="4.6" text-anchor="middle" fill="currentColor" transform="rotate(-90 -15 46.0)">92</text><line x1="278.0" y1="28.0" x2="278.0" y2="64.0" stroke="currentColor" stroke-width="0.4" marker-start="url(#a)" marker-end="url(#a)"/><text x="275.0" y="46.0" font-size="4.6" text-anchor="middle" fill="currentColor" transform="rotate(-90 275.0 46.0)">36</text><line x1="298.0" y1="10.0" x2="298.0" y2="82.0" stroke="currentColor" stroke-width="0.4" marker-start="url(#a)" marker-end="url(#a)"/><text x="295.0" y="46.0" font-size="4.6" text-anchor="middle" fill="currentColor" transform="rotate(-90 295.0 46.0)">opening 72</text><text x="0" y="134.0" font-size="4.4" fill="currentColor">3 mm aluminium &#183; bore &#8709;24 &#183; screws &#8709;3.2 @ 24 (horizontal) &#183; mount &#8709;4.5</text></g></svg>