0
SECTION
2
HEADER
9
$INSUNITS
70
4
0
ENDSEC
0
SECTION
2
TABLES
0
TABLE
2
LAYER
70
2
0
LAYER
2
CUT
70
0
62
7
6
CONTINUOUS
0
LAYER
2
ENGRAVE
70
0
62
3
6
CONTINUOUS
0
ENDTAB
0
ENDSEC
0
SECTION
2
ENTITIES
0
POLYLINE
8
CUT
66
1
70
1
0
VERTEX
8
CUT
10
4.0000
20
0.0000
30
0.0
0
VERTEX
8
CUT
10
260.0000
20
0.0000
30
0.0
42
0.414214
0
VERTEX
8
CUT
10
264.0000
20
4.0000
30
0.0
0
VERTEX
8
CUT
10
264.0000
20
88.0000
30
0.0
42
0.414214
0
VERTEX
8
CUT
10
260.0000
20
92.0000
30
0.0
0
VERTEX
8
CUT
10
4.0000
20
92.0000
30
0.0
42
0.414214
0
VERTEX
8
CUT
10
0.0000
20
88.0000
30
0.0
0
VERTEX
8
CUT
10
0.0000
20
4.0000
30
0.0
42
0.414214
0
SEQEND
8
CUT
0
CIRCLE
8
CUT
10
44.0000
20
64.0000
30
0.0
40
12.0000
0
CIRCLE
8
CUT
10
32.0000
20
64.0000
30
0.0
40
1.6000
0
CIRCLE
8
CUT
10
56.0000
20
64.0000
30
0.0
40
1.6000
0
TEXT
8
ENGRAVE
10
44.0000
20
47.0000
30
0.0
40
3.0000
1
SDI IN 1
72
1
73
2
11
44.0000
21
47.0000
31
0.0
0
CIRCLE
8
CUT
10
88.0000
20
64.0000
30
0.0
40
12.0000
0
CIRCLE
8
CUT
10
76.0000
20
64.0000
30
0.0
40
1.6000
0
CIRCLE
8
CUT
10
100.0000
20
64.0000
30
0.0
40
1.6000
0
TEXT
8
ENGRAVE
10
88.0000
20
47.0000
30
0.0
40
3.0000
1
SDI IN 2
72
1
73
2
11
88.0000
21
47.0000
31
0.0
0
CIRCLE
8
CUT
10
132.0000
20
64.0000
30
0.0
40
12.0000
0
CIRCLE
8
CUT
10
120.0000
20
64.0000
30
0.0
40
1.6000
0
CIRCLE
8
CUT
10
144.0000
20
64.0000
30
0.0
40
1.6000
0
TEXT
8
ENGRAVE
10
132.0000
20
47.0000
30
0.0
40
3.0000
1
SDI IN 3
72
1
73
2
11
132.0000
21
47.0000
31
0.0
0
CIRCLE
8
CUT
10
176.0000
20
64.0000
30
0.0
40
12.0000
0
CIRCLE
8
CUT
10
164.0000
20
64.0000
30
0.0
40
1.6000
0
CIRCLE
8
CUT
10
188.0000
20
64.0000
30
0.0
40
1.6000
0
TEXT
8
ENGRAVE
10
176.0000
20
47.0000
30
0.0
40
3.0000
1
SDI IN 4
72
1
73
2
11
176.0000
21
47.0000
31
0.0
0
CIRCLE
8
CUT
10
220.0000
20
64.0000
30
0.0
40
12.0000
0
CIRCLE
8
CUT
10
208.0000
20
64.0000
30
0.0
40
1.6000
0
CIRCLE
8
CUT
10
232.0000
20
64.0000
30
0.0
40
1.6000
0
TEXT
8
ENGRAVE
10
220.0000
20
47.0000
30
0.0
40
3.0000
1
PGM OUT
72
1
73
2
11
220.0000
21
47.0000
31
0.0
0
CIRCLE
8
CUT
10
44.0000
20
28.0000
30
0.0
40
12.0000
0
CIRCLE
8
CUT
10
32.0000
20
28.0000
30
0.0
40
1.6000
0
CIRCLE
8
CUT
10
56.0000
20
28.0000
30
0.0
40
1.6000
0
CIRCLE
8
CUT
10
88.0000
20
28.0000
30
0.0
40
12.0000
0
CIRCLE
8
CUT
10
76.0000
20
28.0000
30
0.0
40
1.6000
0
CIRCLE
8
CUT
10
100.0000
20
28.0000
30
0.0
40
1.6000
0
CIRCLE
8
CUT
10
132.0000
20
28.0000
30
0.0
40
12.0000
0
CIRCLE
8
CUT
10
120.0000
20
28.0000
30
0.0
40
1.6000
0
CIRCLE
8
CUT
10
144.0000
20
28.0000
30
0.0
40
1.6000
0
TEXT
8
ENGRAVE
10
132.0000
20
11.0000
30
0.0
40
3.0000
1
NETWORK
72
1
73
2
11
132.0000
21
11.0000
31
0.0
0
CIRCLE
8
CUT
10
176.0000
20
28.0000
30
0.0
40
12.0000
0
CIRCLE
8
CUT
10
164.0000
20
28.0000
30
0.0
40
1.6000
0
CIRCLE
8
CUT
10
188.0000
20
28.0000
30
0.0
40
1.6000
0
TEXT
8
ENGRAVE
10
176.0000
20
11.0000
30
0.0
40
3.0000
1
USB-C
72
1
73
2
11
176.0000
21
11.0000
31
0.0
0
CIRCLE
8
CUT
10
220.0000
20
28.0000
30
0.0
40
12.0000
0
CIRCLE
8
CUT
10
208.0000
20
28.0000
30
0.0
40
1.6000
0
CIRCLE
8
CUT
10
232.0000
20
28.0000
30
0.0
40
1.6000
0
TEXT
8
ENGRAVE
10
220.0000
20
11.0000
30
0.0
40
3.0000
1
AC IN
72
1
73
2
11
220.0000
21
11.0000
31
0.0
0
CIRCLE
8
CUT
10
12.0000
20
15.0000
30
0.0
40
2.2500
0
CIRCLE
8
CUT
10
12.0000
20
46.0000
30
0.0
40
2.2500
0
CIRCLE
8
CUT
10
12.0000
20
77.0000
30
0.0
40
2.2500
0
CIRCLE
8
CUT
10
252.0000
20
15.0000
30
0.0
40
2.2500
0
CIRCLE
8
CUT
10
252.0000
20
46.0000
30
0.0
40
2.2500
0
CIRCLE
8
CUT
10
252.0000
20
77.0000
30
0.0
40
2.2500
0
ENDSEC
0
EOF
