<svg xmlns="http://www.w3.org/2000/svg" viewBox="-44.0 -44.0 392.0 384.0" width="100%" style="max-width:900px;height:auto" font-family="ui-monospace,Consolas,monospace"><defs><marker id="b" markerWidth="9" markerHeight="9" refX="8" refY="3" orient="auto"><path d="M0,0 L9,3 L0,6 z" fill="currentColor"/></marker></defs><g color="var(--dim,#6B7378)"><rect x="31.0" y="31.0" width="242.0" height="156.0" rx="3" fill="var(--bore,#FFF)" stroke="var(--ref,#C8322B)" stroke-width="0.6" stroke-dasharray="5 3" opacity="0.9"/><text x="152.0" y="109.0" font-size="6" text-anchor="middle" fill="var(--ref,#C8322B)" opacity="0.9">LUT11S 242 &#215; 156</text><path d="M4.0,218.0 H300.0 A4.0,4.0 0 0 0 304.0,214.0 V4.0 A4.0,4.0 0 0 0 300.0,0.0 H4.0 A4.0,4.0 0 0 0 0,4.0 V214.0 A4.0,4.0 0 0 0 4.0,218.0 Z M48.0,188.0 L256.0,188.0 L256.0,170.0 L274.0,170.0 L274.0,48.0 L256.0,48.0 L256.0,30.0 L48.0,30.0 L48.0,48.0 L30.0,48.0 L30.0,170.0 L48.0,170.0 Z" fill="var(--plate,#E4E7E8)" fill-rule="evenodd" stroke="var(--ink,#14171A)" stroke-width="0.9"/><text x="39.0" y="181.0" font-size="4.6" text-anchor="middle" fill="var(--ink,#14171A)">TAB</text><text x="265.0" y="181.0" font-size="4.6" text-anchor="middle" fill="var(--ink,#14171A)">TAB</text><text x="39.0" y="41.0" font-size="4.6" text-anchor="middle" fill="var(--ink,#14171A)">TAB</text><text x="265.0" y="41.0" font-size="4.6" text-anchor="middle" fill="var(--ink,#14171A)">TAB</text><circle cx="15.0" cy="203.0" r="2.25" fill="var(--bore,#FFF)" stroke="var(--ink,#14171A)" stroke-width="0.6"/><circle cx="152.0" cy="203.0" r="2.25" fill="var(--bore,#FFF)" stroke="var(--ink,#14171A)" stroke-width="0.6"/><circle cx="289.0" cy="203.0" r="2.25" fill="var(--bore,#FFF)" stroke="var(--ink,#14171A)" stroke-width="0.6"/><circle cx="15.0" cy="109.0" r="2.25" fill="var(--bore,#FFF)" stroke="var(--ink,#14171A)" stroke-width="0.6"/><circle cx="289.0" cy="109.0" r="2.25" fill="var(--bore,#FFF)" stroke="var(--ink,#14171A)" stroke-width="0.6"/><circle cx="15.0" cy="15.0" r="2.25" fill="var(--bore,#FFF)" stroke="var(--ink,#14171A)" stroke-width="0.6"/><circle cx="152.0" cy="15.0" r="2.25" fill="var(--bore,#FFF)" stroke="var(--ink,#14171A)" stroke-width="0.6"/><circle cx="289.0" cy="15.0" r="2.25" fill="var(--bore,#FFF)" stroke="var(--ink,#14171A)" stroke-width="0.6"/><line x1="0" y1="-12" x2="304.0" y2="-12" stroke="currentColor" stroke-width="0.4" marker-start="url(#b)" marker-end="url(#b)"/><text x="152.0" y="-14.5" font-size="5" text-anchor="middle" fill="currentColor">304</text><line x1="30.0" y1="22.0" x2="274.0" y2="22.0" stroke="currentColor" stroke-width="0.4" marker-start="url(#b)" marker-end="url(#b)"/><text x="152.0" y="19.5" font-size="5" text-anchor="middle" fill="currentColor">window 244</text><line x1="-12" y1="0" x2="-12" y2="218.0" stroke="currentColor" stroke-width="0.4" marker-start="url(#b)" marker-end="url(#b)"/><text x="-15" y="109.0" font-size="5" text-anchor="middle" fill="currentColor" transform="rotate(-90 -15 109.0)">218</text><line x1="318.0" y1="30.0" x2="318.0" y2="188.0" stroke="currentColor" stroke-width="0.4" marker-start="url(#b)" marker-end="url(#b)"/><text x="315.0" y="109.0" font-size="5" text-anchor="middle" fill="currentColor" transform="rotate(-90 315.0 109.0)">window 158</text><text x="0.0" y="248.0" font-size="5.5" fill="currentColor" letter-spacing="0.8">STACK &#183; LID CAVITY 44 mm</text><rect x="-2.0" y="252.0" width="154.0" height="70.4" fill="none" stroke="currentColor" stroke-width="0.4" stroke-dasharray="3 3"/><rect x="0.0" y="319.2" width="150.0" height="3.2" fill="var(--panel-2,#D6DADC)" stroke="var(--ink,#14171A)" stroke-width="0.5"/><text x="156.0" y="322.6" font-size="5" fill="var(--ink,#14171A)">foam 5 &#8594; 2 compressed</text><rect x="0.0" y="282.4" width="150.0" height="36.800000000000004" fill="var(--plate,#E4E7E8)" stroke="var(--ink,#14171A)" stroke-width="0.5"/><text x="156.0" y="302.59999999999997" font-size="5" fill="var(--ink,#14171A)">monitor 23</text><rect x="0.0" y="277.6" width="150.0" height="4.800000000000001" fill="var(--bore,#FFF)" stroke="var(--ink,#14171A)" stroke-width="0.5"/><text x="156.0" y="281.8" font-size="5" fill="var(--ink,#14171A)">frame 3  (on 25 mm standoffs)</text><text x="156.0" y="266.6" font-size="5" fill="currentColor">16 mm free</text></g></svg>